<?xml version="1.0" encoding="UTF-8"?>
<!DOCTYPE svg PUBLIC "-//W3C//DTD SVG 1.1//EN" "http://www.w3.org/Graphics/SVG/1.1/DTD/svg11.dtd">
<svg xmlns="http://www.w3.org/2000/svg" version="1.1" width="323px" height="365px" style="shape-rendering:geometricPrecision; text-rendering:geometricPrecision; image-rendering:optimizeQuality; fill-rule:evenodd; clip-rule:evenodd" xmlns:xlink="http://www.w3.org/1999/xlink">
<g><path style="opacity:1" fill="#fefefe" d="M -0.5,-0.5 C 107.167,-0.5 214.833,-0.5 322.5,-0.5C 322.5,121.167 322.5,242.833 322.5,364.5C 214.833,364.5 107.167,364.5 -0.5,364.5C -0.5,242.833 -0.5,121.167 -0.5,-0.5 Z"/></g>
<g><path style="opacity:1" fill="#95aa61" d="M 64.5,11.5 C 89.4843,8.39201 105.651,18.7253 113,42.5C 115.081,65.5275 105.247,80.6941 83.5,88C 61.0532,91.197 45.5532,82.3637 37,61.5C 32.7234,37.3102 41.89,20.6435 64.5,11.5 Z"/></g>
<g><path style="opacity:1" fill="#fdb8bd" d="M 140.5,11.5 C 156.503,11.3334 172.503,11.5001 188.5,12C 195.909,14.4084 201.076,19.2417 204,26.5C 204.667,42.1667 204.667,57.8333 204,73.5C 201.076,80.7583 195.909,85.5916 188.5,88C 172.5,88.6667 156.5,88.6667 140.5,88C 133.667,85.1667 128.833,80.3333 126,73.5C 125.333,57.8333 125.333,42.1667 126,26.5C 129.047,19.6217 133.881,14.6217 140.5,11.5 Z"/></g>
<g><path style="opacity:1" fill="#fdb8bd" d="M 231.5,11.5 C 247.503,11.3334 263.503,11.5001 279.5,12C 286.909,14.4084 292.076,19.2417 295,26.5C 295.667,42.1667 295.667,57.8333 295,73.5C 292.076,80.7583 286.909,85.5916 279.5,88C 263.5,88.6667 247.5,88.6667 231.5,88C 223.799,84.9691 218.966,79.4691 217,71.5C 216.333,57.1667 216.333,42.8333 217,28.5C 219.188,20.4856 224.021,14.8189 231.5,11.5 Z"/></g>
<g><path style="opacity:1" fill="#fdb8bd" d="M 143.5,96.5 C 157.837,96.3334 172.171,96.5001 186.5,97C 195.454,98.6194 201.287,103.786 204,112.5C 204.667,127.833 204.667,143.167 204,158.5C 201.105,167.536 194.939,172.702 185.5,174C 170.833,174.667 156.167,174.667 141.5,174C 133.198,171.367 128.031,165.867 126,157.5C 125.333,142.5 125.333,127.5 126,112.5C 128.886,103.774 134.719,98.4408 143.5,96.5 Z"/></g>
<g><path style="opacity:1" fill="#fdb8bd" d="M 49.5,97.5 C 66.17,97.3334 82.8367,97.5001 99.5,98C 106.573,100.072 111.406,104.572 114,111.5C 114.667,127.167 114.667,142.833 114,158.5C 111.5,166.333 106.333,171.5 98.5,174C 82.8333,174.667 67.1667,174.667 51.5,174C 43.6928,171.526 38.5261,166.359 36,158.5C 35.3333,143.5 35.3333,128.5 36,113.5C 38.5489,106.457 43.0489,101.123 49.5,97.5 Z"/></g>
<g><path style="opacity:1" fill="#fdb8bd" d="M 48.5,182.5 C 65.17,182.333 81.8367,182.5 98.5,183C 105.732,185.899 110.565,191.066 113,198.5C 113.667,212.833 113.667,227.167 113,241.5C 111.445,250.054 106.612,255.888 98.5,259C 81.8333,259.667 65.1667,259.667 48.5,259C 41.5724,256.406 37.0724,251.573 35,244.5C 34.3333,228.5 34.3333,212.5 35,196.5C 37.6873,189.981 42.1873,185.314 48.5,182.5 Z"/></g>
<g><path style="opacity:1" fill="#fdb8bd" d="M 140.5,182.5 C 156.503,182.333 172.503,182.5 188.5,183C 195.909,185.408 201.076,190.242 204,197.5C 204.667,213.167 204.667,228.833 204,244.5C 201.076,251.758 195.909,256.592 188.5,259C 172.5,259.667 156.5,259.667 140.5,259C 133.667,256.167 128.833,251.333 126,244.5C 125.333,228.833 125.333,213.167 126,197.5C 129.047,190.622 133.881,185.622 140.5,182.5 Z"/></g>
<g><path style="opacity:1" fill="#fdb8bd" d="M 231.5,182.5 C 247.503,182.333 263.503,182.5 279.5,183C 286.909,185.408 292.076,190.242 295,197.5C 295.667,213.167 295.667,228.833 295,244.5C 292.076,251.758 286.909,256.592 279.5,259C 263.5,259.667 247.5,259.667 231.5,259C 223.799,255.969 218.966,250.469 217,242.5C 216.333,228.167 216.333,213.833 217,199.5C 219.188,191.486 224.021,185.819 231.5,182.5 Z"/></g>
<g><path style="opacity:1" fill="#fdb8bd" d="M 51.5,267.5 C 66.837,267.333 82.1703,267.5 97.5,268C 105.477,269.975 110.977,274.808 114,282.5C 114.667,298.167 114.667,313.833 114,329.5C 111.124,338.53 104.957,343.697 95.5,345C 81.1667,345.667 66.8333,345.667 52.5,345C 44.3074,342.141 38.8074,336.641 36,328.5C 35.3333,313.5 35.3333,298.5 36,283.5C 38.685,275.65 43.8517,270.316 51.5,267.5 Z"/></g>
<g><path style="opacity:1" fill="#fdb8bd" d="M 142.5,267.5 C 157.837,267.333 173.17,267.5 188.5,268C 196.333,270.5 201.5,275.667 204,283.5C 204.667,298.833 204.667,314.167 204,329.5C 200.716,338.065 194.549,343.231 185.5,345C 171.167,345.667 156.833,345.667 142.5,345C 133.763,342.719 128.263,337.219 126,328.5C 125.333,313.167 125.333,297.833 126,282.5C 129.206,274.786 134.706,269.786 142.5,267.5 Z"/></g>
</svg>
